<?xml version="1.0" encoding="UTF-8" standalone="no"?>
<svg
   width="256"
   height="256"
   viewBox="0 0 256 256"
   fill="none"
   version="1.1"
   id="svg248"
   sodipodi:docname="endless-os.svg"
   inkscape:version="1.2.2 (b0a8486541, 2022-12-01)"
   xmlns:inkscape="http://www.inkscape.org/namespaces/inkscape"
   xmlns:sodipodi="http://sodipodi.sourceforge.net/DTD/sodipodi-0.dtd"
   xmlns="http://www.w3.org/2000/svg"
   xmlns:svg="http://www.w3.org/2000/svg">
  <defs
     id="defs252" />
  <sodipodi:namedview
     id="namedview250"
     pagecolor="#ffffff"
     bordercolor="#000000"
     borderopacity="0.25"
     inkscape:showpageshadow="2"
     inkscape:pageopacity="0.0"
     inkscape:pagecheckerboard="true"
     inkscape:deskcolor="#d1d1d1"
     showgrid="false"
     inkscape:zoom="1.0350877"
     inkscape:cx="549.71186"
     inkscape:cy="114"
     inkscape:window-width="2560"
     inkscape:window-height="1371"
     inkscape:window-x="0"
     inkscape:window-y="0"
     inkscape:window-maximized="1"
     inkscape:current-layer="svg248" />
  <path
     d="m 222.00162,153.8571 c -11.40912,0 -31.2062,-5.59243 -57.73027,-16.25008 24.62253,-11.87205 44.29225,-18.05572 57.73027,-18.05572 14.52413,0 17.36845,6.51922 17.36845,17.76802 0,14.0451 -4.538,16.53778 -17.36845,16.53778 z M 34.0143,136.6483 c -14.52446,0 -17.368611,-6.51922 -17.368611,-17.76811 0,-14.0451 4.553843,-16.53777 17.368611,-16.53777 11.408617,0 31.221968,5.5765 57.730278,16.25016 C 67.137703,130.46455 47.452155,136.6483 34.0143,136.6483 Z m 187.98732,-30.75861 c -20.27729,0 -48.19167,11.29682 -74.10899,24.65481 l -25.10191,-12.78284 c 20.51614,-11.42463 38.34886,-23.056917 48.23945,-29.67201 l 4.4894,-3.019972 c 0.91765,-0.721471 1.51266,-1.775897 1.65596,-2.933989 0.14417,-1.158067 -0.17515,-2.326014 -0.88833,-3.24968 l -2.54093,-3.611137 c -1.46994,-2.077202 -4.01089,-2.828191 -5.64004,-1.597847 l -0.9914,0.639126 c -7.86085,5.3528 -26.52407,17.768115 -48.31906,30.071509 -3.77035,2.12519 -7.44517,4.15443 -11.0563,6.07188 C 73.720868,96.078883 48.92225,88.728826 34.0143,88.728826 19.633648,88.728826 3,92.148125 3,118.91212 c 0,14.38065 5.3847623,31.4138 31.0143,31.4138 20.292628,0 48.191168,-11.2809 74.10816,-24.63889 l 25.11866,12.78276 c -19.39818,10.80153 -36.43141,21.77864 -46.545752,28.53746 l -5.848116,3.9145 c -0.989394,0.70479 -1.661589,1.76995 -1.870932,2.96668 -0.209343,1.19588 0.06093,2.42697 0.75248,3.42508 l 2.556533,3.61113 c 0.66591,0.99056 1.697875,1.67692 2.869209,1.90738 1.171416,0.2313 2.386411,-0.0125 3.378655,-0.67714 l 3.642973,-2.41272 c 9.09193,-6.15124 25.85279,-17.06508 45.02722,-27.8983 3.77119,-2.13047 7.45691,-4.15979 11.05714,-6.08788 34.0346,14.38099 58.83314,21.74655 73.72517,21.74655 14.37998,0 31.0143,-3.43514 31.0143,-30.18321 0,-14.38057 -5.36935,-31.42963 -31.0143,-31.42963"
     fill="#ee5a36"
     id="path208"
     style="stroke-width:0.838043" />
</svg>
