<?xml version="1.0" encoding="UTF-8" standalone="no"?>
<svg
   version="1.1"
   width="256"
   height="256"
   id="svg2855"
   sodipodi:docname="fedora_logo.svg"
   inkscape:version="1.2.2 (b0a8486541, 2022-12-01)"
   xmlns:inkscape="http://www.inkscape.org/namespaces/inkscape"
   xmlns:sodipodi="http://sodipodi.sourceforge.net/DTD/sodipodi-0.dtd"
   xmlns="http://www.w3.org/2000/svg"
   xmlns:svg="http://www.w3.org/2000/svg"
   xmlns:rdf="http://www.w3.org/1999/02/22-rdf-syntax-ns#"
   xmlns:cc="http://creativecommons.org/ns#"
   xmlns:dc="http://purl.org/dc/elements/1.1/">
  <metadata
     id="metadata20">
    <rdf:RDF>
      <cc:Work
         rdf:about="">
        <dc:format>image/svg+xml</dc:format>
        <dc:type
           rdf:resource="http://purl.org/dc/dcmitype/StillImage" />
      </cc:Work>
    </rdf:RDF>
  </metadata>
  <sodipodi:namedview
     pagecolor="#ffffff"
     bordercolor="#666666"
     borderopacity="1"
     objecttolerance="10"
     gridtolerance="10"
     guidetolerance="10"
     inkscape:pageopacity="0"
     inkscape:pageshadow="2"
     inkscape:window-width="1728"
     inkscape:window-height="1011"
     id="namedview18"
     showgrid="false"
     inkscape:zoom="0.87355965"
     inkscape:cx="587.82477"
     inkscape:cy="45.789661"
     inkscape:window-x="0"
     inkscape:window-y="0"
     inkscape:window-maximized="1"
     inkscape:current-layer="svg2855"
     inkscape:showpageshadow="2"
     inkscape:pagecheckerboard="true"
     inkscape:deskcolor="#d1d1d1" />
  <defs
     id="defs2857" />
  <path
     id="path1616"
     style="opacity:1;fill:#51a2da;fill-opacity:1;fill-rule:nonzero;stroke:none;stroke-width:1.33335"
     d="M 128.00784,24.354491 C 70.78988,24.356591 24.42405,70.726989 24.38674,127.93262 h -0.0176 v 80.21093 h 0.0176 c 0.0275,12.9874 10.55288,23.50196 23.54688,23.50196 h 0.11133 0.0195 79.98828 c 57.22692,-0.0366 103.57813,-46.40163 103.57813,-103.62305 8e-5,-57.244312 -46.37527,-103.665838 -103.61915,-103.667969 h -0.002 z m 21.0039,42.662107 -0.004,0.004 c 17.40429,0 33.83398,13.32822 33.83398,31.70898 0,1.704642 0.009,3.410342 -0.26953,5.343752 -0.4821,4.89038 -4.9504,8.40426 -9.8164,7.71484 -4.86599,-0.69746 -8.1678,-5.31877 -7.26758,-10.15234 0.0825,-0.55174 0.11328,-1.41735 0.11328,-2.906252 0,-10.4215 -8.52909,-14.44531 -16.59375,-14.44531 -8.0598,0 -15.3206,6.77796 -15.33984,14.44531 0.13929,8.869002 0,17.668212 0,26.519532 l 14.96093,-0.11133 c 11.67843,-0.24195 11.81089,17.35304 0.13477,17.26368 l -15.0957,0.11132 c -0.0366,7.13365 0.0562,5.84465 0.0195,9.4375 0,0 0.12553,8.72522 -0.13477,15.33985 -1.80536,19.42688 -18.3451,34.95117 -38.21484,34.95117 -21.06021,0 -38.41797,-17.21604 -38.41797,-38.32813 0.63239,-21.71892 17.95011,-38.79853 39.75976,-38.5957 l 12.16407,-0.0918 v 17.24024 l -12.16407,0.11133 h -0.0645 c -11.98664,0.3547 -22.25484,8.49734 -22.45117,21.33398 0,11.69628 9.44704,21.06445 21.17578,21.06445 11.70939,0 21.08789,-8.52273 21.08789,-21.04296 l -0.0195,-65.273442 c 0.006,-1.211739 0.0468,-2.17516 0.17969,-3.51172 1.97729,-15.967099 16.2605,-28.13086 32.42382,-28.13086 z" />
</svg>
